<svg
    xmlns="http://www.w3.org/2000/svg"
    width="40"
    height="40"
    viewBox="0 0 512 512"
    >
    <path
        fill="#111c37"
        d="M504.1,256C504.1,119,393,7.9,256,7.9C119,7.9,7.9,119,7.9,256C7.9,393,119,504.1,256,504.1C393,504.1,504.1,393,504.1,256z"
    ></path>
    <path
        fill="#FFF"
        d="M408.8,245.5l-141.2-86.7c-3.9-2.4-8.9-2.5-12.9-0.3c-4,2.2-6.5,6.5-6.5,11.1v172.7c0,4.6,2.5,8.8,6.5,11.1c1.9,1.1,4.1,1.6,6.2,1.6c2.3,0,4.6-0.6,6.6-1.9l141.2-86c3.8-2.3,6.1-6.4,6.1-10.8C414.9,251.9,412.6,247.8,408.8,245.5z"
    ></path>
    <path
        fill="#FFF"
        d="M343.5,229.5H109.2c-6.7,0-12,5.4-12,12v28.9c0,6.7,5.4,12,12,12h234.3c6.7,0,12-5.4,12-12v-28.9C355.6,234.9,350.2,229.5,343.5,229.5z"
    ></path>
</svg>